<svg width="32" height="39" viewBox="0 0 32 39" fill="none" xmlns="http://www.w3.org/2000/svg">
<path d="M13.0175 0C7.55152 0 0.0123291 3.92065 0.0123291 12.5905C0.0123291 22.3163 8.26789 27.33 8.56921 27.33C8.87053 27.33 9.13471 27.1037 9.13471 26.8399C9.13471 26.1236 3.78173 22.7309 3.78173 14.5133C3.78173 6.33314 8.79549 1.73404 14.6385 1.73404C20.1799 1.73404 28.0958 6.40857 28.0958 15.4934C28.0958 25.7089 19.539 32.9089 9.54937 35.133C16.976 28.9132 15.5448 20.4314 21.7631 12.1008C22.404 11.2711 23.0825 11.0827 23.0825 10.7814C23.0825 10.5172 22.8187 10.2913 22.2153 10.2913C11.3588 10.2913 13.5443 28.6123 8.38083 34.0774C6.53384 35.9623 5.0636 36.8671 5.0636 37.1309C5.0636 37.3947 5.51577 37.9981 6.00586 37.9981C6.49594 37.9981 8.11703 36.3395 9.96402 36.1507C21.6877 34.9446 31.9786 28.046 31.9786 17.6417C31.9786 6.55942 21.4239 0 13.0175 0Z" fill="url(#paint0_linear_633_17276)"/>
<path d="M13.0175 0C7.65404 0.0305575 2.16955 3.41857 0.591775 8.69071C-0.0727537 10.8158 -0.10834 13.1003 0.246746 15.2869C0.963107 19.6899 3.58951 23.6504 7.10091 26.3471C7.35311 26.5406 7.61072 26.7243 7.87452 26.898C8.09655 27.0384 8.31702 27.1915 8.56071 27.289C8.81523 27.3014 9.10572 27.0956 9.09218 26.8249C9.08174 26.7529 9.03687 26.691 8.99741 26.6315C8.81445 26.3777 8.58779 26.1503 8.37659 25.9174C6.15866 23.6302 4.52402 20.7486 3.98521 17.588C3.71096 16.0999 3.65836 14.5709 3.76241 13.0624C3.7744 12.8597 3.81424 12.5441 3.82971 12.3479C3.85601 12.1159 3.89663 11.8702 3.9268 11.6366C3.95697 11.4293 4.02195 11.1287 4.05444 10.9299C4.08732 10.8108 4.17977 10.3563 4.21651 10.2302C4.24862 10.123 4.31205 9.87781 4.34416 9.76835C4.39909 9.55986 4.49888 9.27865 4.56154 9.08332C6.03643 4.79753 9.60663 1.81643 14.2046 1.62883C15.3263 1.57778 16.4542 1.71818 17.5423 1.99088C21.8907 3.07973 25.7534 6.24572 27.3547 10.4754C28.7287 14.0905 28.4614 18.196 27.113 21.7794C24.1984 29.3472 16.5037 33.9602 8.82528 35.4908L9.42483 34.988C10.7005 33.9147 11.8202 32.6687 12.7513 31.2859C12.8492 31.1311 13.0635 30.8016 13.1563 30.655C13.2283 30.5289 13.458 30.1421 13.5354 30.0079C13.6228 29.8497 13.8089 29.4973 13.8909 29.3468C13.9582 29.211 14.1539 28.82 14.2243 28.6738C15.4485 26.0899 16.2299 23.3359 17.1911 20.6457C18.0943 18.0982 19.1878 15.5967 20.6824 13.3351C20.8278 13.113 21.0947 12.7127 21.2572 12.4957C21.4119 12.2803 21.6935 11.8706 21.89 11.6784C22.0117 11.5517 22.1408 11.4323 22.2768 11.321C22.4659 11.1589 22.6814 11.0266 22.8527 10.8622C22.8706 10.8447 22.886 10.8248 22.8984 10.803C22.9 10.8002 22.9014 10.7972 22.9026 10.7942C22.9032 10.7921 22.9032 10.79 22.9026 10.788C22.9029 10.7873 22.903 10.7867 22.903 10.786C22.903 10.7854 22.9029 10.7847 22.9026 10.7841C22.903 10.7798 22.903 10.7756 22.9026 10.7713C22.9014 10.7493 22.8967 10.7276 22.8887 10.7071C22.8495 10.6349 22.7848 10.5797 22.7073 10.5524C22.5727 10.4909 22.3878 10.4712 22.2215 10.4696C22.1217 10.4719 21.8942 10.477 21.7886 10.4801C21.7577 10.4801 21.6962 10.4835 21.6652 10.4863C20.2283 10.5636 18.8102 11.0537 17.6862 11.9608C13.5087 15.3186 12.7374 23.5262 11.1956 28.5279C10.7032 30.1866 10.1296 31.8579 9.15291 33.3027C8.95872 33.583 8.74588 33.85 8.51584 34.1018C8.07798 34.5613 7.61072 34.9914 7.13766 35.4142C6.63481 35.8621 6.10644 36.2865 5.59044 36.7162C5.46391 36.8189 5.3439 36.9293 5.2311 37.0469C5.20617 37.0725 5.18554 37.1018 5.16999 37.134C5.2017 37.366 5.42025 37.6178 5.62023 37.7586C5.73173 37.8396 5.86404 37.8872 6.00161 37.8956C6.06059 37.8899 6.11795 37.8731 6.17065 37.8461C6.39229 37.7412 6.59613 37.5993 6.80462 37.4639C7.36781 37.0899 7.94144 36.7189 8.56497 36.4466C8.8982 36.2983 9.24638 36.1861 9.60353 36.112C9.86076 36.0579 10.2839 36.0296 10.5497 35.996C17.458 35.1547 24.6061 32.36 28.919 26.6709C33.1224 21.1783 32.8574 13.3262 28.7217 7.87417C25.0919 3.06387 19.0338 0.0626626 13.0175 0.000387182V0ZM13.0175 0C19.6871 0.0661435 26.4721 3.74426 29.8492 9.54864C32.5673 14.2062 32.7801 20.3053 30.0813 25.0185C26.2419 31.7129 18.4385 35.07 11.0742 36.1078L10.5713 36.1724C10.3153 36.2014 9.88977 36.2443 9.63951 36.2919C8.96917 36.4292 8.3441 36.7328 7.75925 37.0848C7.47302 37.2566 7.1949 37.4426 6.91486 37.6298C6.65957 37.7915 6.41472 37.9841 6.12114 38.0812C5.79738 38.1621 5.45583 37.9339 5.24812 37.7041C5.17154 37.6202 5.10507 37.5277 5.05008 37.4283C4.99987 37.3412 4.96887 37.2444 4.95918 37.1444C4.95222 37.067 5.00211 36.9924 5.04814 36.9347C5.17249 36.7973 5.30724 36.6697 5.45119 36.553C6.35709 35.8022 7.25679 35.0483 8.08417 34.2116C8.49715 33.8034 8.85914 33.3466 9.16219 32.8513C9.98956 31.4936 10.5025 29.9723 10.9442 28.451C12.0547 24.5667 12.638 20.5292 14.1071 16.7467C14.6065 15.4834 15.2176 14.2526 16.0473 13.1676C17.3624 11.415 19.3158 10.277 21.5183 10.1463C21.7078 10.1269 21.8528 10.1273 22.0319 10.1215C22.2029 10.1165 22.3967 10.1118 22.5696 10.1451C22.7692 10.1838 22.9711 10.2507 23.1177 10.4159C23.2337 10.547 23.2948 10.7412 23.2337 10.9133C23.1718 11.0788 23.0191 11.1895 22.8968 11.2869C22.7599 11.3921 22.6284 11.4885 22.5034 11.5929C22.253 11.7972 22.0306 12.0337 21.842 12.2961C21.6606 12.5522 21.432 12.8593 21.2637 13.1134C20.2314 14.6347 19.3638 16.2678 18.6397 17.9581C16.7884 22.1995 15.9108 26.8666 13.4863 30.8542C13.3791 31.0255 13.1768 31.3327 13.0736 31.4986C12.932 31.7071 12.778 31.9187 12.6345 32.1256C11.7749 33.2903 10.7803 34.349 9.67161 35.2796L9.50722 34.9462C15.6133 33.5812 21.5461 30.2914 25.0602 24.9999C28.5082 19.8423 29.1944 12.3773 25.2362 7.30711C22.6589 3.95739 18.2432 1.64933 13.9779 1.87252C9.95514 2.09222 6.64603 4.59291 5.07058 8.25942C4.88043 8.69287 4.71386 9.13628 4.5716 9.58771C4.52867 9.70375 4.4749 9.91882 4.43854 10.0422C4.36118 10.2925 4.2726 10.6998 4.21033 10.9616C4.16043 11.2425 4.07997 11.6192 4.04671 11.8954C3.95453 12.5212 3.89488 13.1514 3.868 13.7834C3.8622 13.9536 3.85756 14.3342 3.85253 14.4955C3.85253 14.8896 3.86143 15.2884 3.88657 15.681C4.09699 19.5877 5.73898 23.0547 8.43964 25.8582C8.65354 26.0961 8.87673 26.3224 9.06472 26.5843C9.11152 26.6547 9.16103 26.7297 9.17225 26.8163C9.19081 27.1327 8.87402 27.3668 8.58121 27.3683C8.55633 27.3682 8.53172 27.3631 8.50888 27.3532C8.26906 27.248 8.05206 27.101 7.83352 26.9598C7.04283 26.4237 6.29869 25.8219 5.60901 25.1608C2.84027 22.5441 0.818829 19.0756 0.215802 15.2919C-0.0483851 13.6464 -0.0847448 11.9542 0.189112 10.3079C1.17856 4.1125 6.94193 0.0762004 13.0167 0H13.0175Z" fill="#C2DF38"/>
<defs>
<linearGradient id="paint0_linear_633_17276" x1="0.0123291" y1="18.999" x2="31.9778" y2="18.999" gradientUnits="userSpaceOnUse">
<stop stop-color="#008080"/>
<stop offset="1" stop-color="#901CD7"/>
</linearGradient>
</defs>
</svg>
