<svg width="210" height="90" viewBox="0 0 210 90" fill="none" xmlns="http://www.w3.org/2000/svg">
<g clip-path="url(#clip0_633_7832)">
<path d="M30.5672 0C17.7315 0 0.0272217 9.20686 0.0272217 29.5662C0.0272217 52.4053 19.4138 64.1791 20.1213 64.1791C20.8289 64.1791 21.4493 63.6477 21.4493 63.0283C21.4493 61.346 8.87892 53.379 8.87892 34.0815C8.87892 14.8721 20.6527 4.07205 34.374 4.07205C47.3867 4.07205 65.9758 15.0492 65.9758 36.3832C65.9758 60.3723 45.8816 77.28 22.4231 82.5029C39.863 67.8969 36.5022 47.979 51.1045 28.4163C52.6096 26.4679 54.2029 26.0255 54.2029 25.3179C54.2029 24.6976 53.5834 24.1671 52.1664 24.1671C26.6722 24.1671 31.8043 67.1902 19.679 80.0241C15.3417 84.4504 11.8891 86.5749 11.8891 87.1944C11.8891 87.8139 12.951 89.2309 14.1018 89.2309C15.2527 89.2309 19.0595 85.336 23.3968 84.8927C50.9274 82.0605 75.0936 65.8604 75.0936 41.4281C75.0936 15.4035 50.3079 0 30.5672 0Z" fill="url(#paint0_linear_633_7832)"/>
<path d="M30.5672 0C17.9723 0.0717582 5.09304 8.02784 1.38796 20.4084C-0.172557 25.3988 -0.256124 30.7634 0.577724 35.8982C2.25996 46.2377 8.42753 55.5381 16.6734 61.871C17.2656 62.3252 17.8706 62.7567 18.49 63.1645C19.0114 63.4942 19.5292 63.8539 20.1014 64.0828C20.6991 64.1119 21.3813 63.6287 21.3495 62.9928C21.3249 62.8239 21.2196 62.6786 21.1269 62.5387C20.6973 61.9428 20.165 61.4087 19.669 60.8619C14.4607 55.4909 10.6221 48.7238 9.35675 41.3019C8.71274 37.8075 8.58921 34.2169 8.83355 30.6744C8.86171 30.1984 8.95527 29.4572 8.9916 28.9967C9.05337 28.4517 9.14874 27.8749 9.21959 27.3263C9.29044 26.8394 9.44304 26.1336 9.51934 25.6667C9.59655 25.387 9.81364 24.3197 9.89994 24.0236C9.97533 23.772 10.1243 23.1961 10.1997 22.939C10.3287 22.4494 10.563 21.7891 10.7102 21.3304C14.1736 11.266 22.5575 4.26553 33.3549 3.82499C35.989 3.70509 38.6377 4.03481 41.1929 4.67519C51.4044 7.23214 60.475 14.6668 64.2355 24.5995C67.4618 33.0887 66.8342 42.7298 63.6677 51.1445C56.8235 68.9161 38.754 79.7488 20.7227 83.3431L22.1306 82.1623C25.1263 79.642 27.7556 76.7159 29.9423 73.4686C30.1721 73.1053 30.6753 72.3314 30.8933 71.9871C31.0623 71.691 31.6018 70.7827 31.7835 70.4675C31.9888 70.096 32.4257 69.2685 32.6182 68.9152C32.7763 68.5963 33.2359 67.678 33.4012 67.3347C36.2761 61.267 38.1109 54.7997 40.3681 48.4822C42.4891 42.5 45.0569 36.6258 48.5667 31.3148C48.9083 30.7934 49.535 29.8532 49.9165 29.3437C50.2798 28.8377 50.9411 27.8758 51.4025 27.4244C51.6883 27.1268 51.9917 26.8465 52.3109 26.5851C52.755 26.2045 53.261 25.8938 53.6634 25.5078C53.7054 25.4666 53.7414 25.4199 53.7706 25.3688C53.7743 25.362 53.7776 25.3551 53.7806 25.3479C53.782 25.3432 53.782 25.3381 53.7806 25.3334C53.7812 25.3319 53.7815 25.3304 53.7815 25.3288C53.7815 25.3273 53.7812 25.3257 53.7806 25.3243C53.7813 25.3143 53.7813 25.3043 53.7806 25.2943C53.7777 25.2426 53.7667 25.1917 53.7479 25.1435C53.6558 24.9738 53.504 24.8444 53.3218 24.7802C53.0057 24.6358 52.5716 24.5895 52.181 24.5858C51.9466 24.5913 51.4125 24.6031 51.1646 24.6103C51.0919 24.6103 50.9475 24.6185 50.8748 24.6249C47.5003 24.8066 44.1704 25.9574 41.5308 28.0874C31.7208 35.9727 29.9096 55.2466 26.289 66.9922C25.1327 70.8871 23.7856 74.812 21.4921 78.2047C21.0361 78.8631 20.5363 79.49 19.996 80.0813C18.9678 81.1604 17.8705 82.1704 16.7597 83.1633C15.5788 84.2151 14.338 85.2115 13.1263 86.2207C12.8292 86.4618 12.5474 86.7212 12.2825 86.9973C12.224 87.0573 12.1755 87.1263 12.139 87.2017C12.2135 87.7467 12.7267 88.338 13.1963 88.6687C13.4581 88.8589 13.7688 88.9704 14.0919 88.9902C14.2304 88.977 14.3651 88.9375 14.4888 88.8739C15.0093 88.6278 15.488 88.2944 15.9776 87.9765C17.3001 87.0981 18.6472 86.2271 20.1114 85.5876C20.8939 85.2393 21.7116 84.9758 22.5503 84.8019C23.1543 84.6747 24.148 84.6084 24.7721 84.5294C40.9949 82.5538 57.7808 75.9911 67.9087 62.6313C77.7796 49.733 77.1574 31.2939 67.4455 18.4909C58.9217 7.1949 44.6954 0.147151 30.5672 0.000909219V0ZM30.5672 0C46.2296 0.155325 62.1626 8.79266 70.0933 22.4231C76.4761 33.3603 76.9757 47.6829 70.6383 58.7509C61.6222 74.4714 43.2975 82.3548 26.0038 84.7919L24.8229 84.9436C24.2216 85.0117 23.2224 85.1125 22.6347 85.2243C21.0606 85.5467 19.5927 86.2598 18.2193 87.0863C17.5472 87.4896 16.8941 87.9266 16.2365 88.3662C15.637 88.7459 15.062 89.1982 14.3726 89.4262C13.6123 89.6161 12.8102 89.0801 12.3225 88.5406C12.1426 88.3437 11.9865 88.1263 11.8574 87.8929C11.7395 87.6885 11.6667 87.4611 11.6439 87.2262C11.6276 87.0446 11.7448 86.8693 11.8528 86.7339C12.1449 86.4112 12.4613 86.1115 12.7993 85.8374C14.9266 84.0743 17.0394 82.304 18.9823 80.3392C19.9522 79.3806 20.8022 78.3079 21.5139 77.1446C23.4568 73.9564 24.6612 70.3839 25.6986 66.8115C28.3064 57.69 29.6761 48.2088 33.126 39.3262C34.2986 36.3596 35.7338 33.4693 37.6822 30.9214C40.7705 26.8058 45.3576 24.1335 50.5296 23.8265C50.9747 23.781 51.3153 23.7819 51.7359 23.7683C52.1374 23.7565 52.5925 23.7456 52.9985 23.8237C53.4672 23.9146 53.9413 24.0717 54.2856 24.4596C54.5581 24.7675 54.7016 25.2235 54.5581 25.6277C54.4128 26.0165 54.054 26.2762 53.7669 26.5051C53.4454 26.7522 53.1365 26.9784 52.8432 27.2236C52.2551 27.7035 51.7329 28.2587 51.2899 28.875C50.8639 29.4763 50.3271 30.1975 49.9319 30.7943C47.5076 34.3668 45.4702 38.2017 43.7698 42.1711C39.4225 52.131 37.3615 63.0909 31.6681 72.4549C31.4165 72.8573 30.9414 73.5785 30.6989 73.9682C30.3665 74.4578 30.005 74.9547 29.668 75.4406C27.6493 78.1755 25.3137 80.6617 22.7101 82.8472L22.3241 82.0642C36.663 78.8587 50.595 71.1333 58.8472 58.7073C66.9441 46.5956 68.5555 29.0657 59.2605 17.1593C53.2083 9.29314 42.8388 3.87313 32.8226 4.39724C23.376 4.91317 15.6052 10.7855 11.9055 19.3956C11.459 20.4135 11.0679 21.4547 10.7338 22.5148C10.633 22.7873 10.5067 23.2924 10.4213 23.5821C10.2397 24.1698 10.0316 25.1263 9.8854 25.7412C9.76823 26.4007 9.57929 27.2854 9.50118 27.9339C9.28472 29.4035 9.14465 30.8834 9.08153 32.3675C9.0679 32.7672 9.057 33.661 9.0452 34.0397C9.0452 34.9653 9.06609 35.9018 9.12513 36.8238C9.61926 45.9979 13.4751 54.1393 19.8171 60.7229C20.3194 61.2815 20.8435 61.8129 21.285 62.4278C21.3949 62.5932 21.5111 62.7694 21.5375 62.9728C21.5811 63.7159 20.8372 64.2654 20.1496 64.269C20.0911 64.2689 20.0333 64.2568 19.9797 64.2336C19.4165 63.9865 18.907 63.6414 18.3937 63.3098C16.537 62.0508 14.7895 60.6376 13.1699 59.0852C6.66809 52.9403 1.92115 44.7953 0.505059 35.91C-0.115332 32.046 -0.200715 28.072 0.442384 24.2061C2.7659 9.65739 16.3 0.178941 30.5654 0H30.5672Z" fill="#C2DF38"/>
<path d="M90.4972 39.3952C92.1785 39.3952 100.145 31.6054 100.145 29.3927C100.145 27.18 97.2243 23.196 95.7201 23.196C94.4802 23.196 93.3293 26.6477 91.648 29.746C89.7886 33.1977 87.6641 35.3232 87.6641 36.831C87.6641 38.3388 89.3463 39.3952 90.4972 39.3952Z" fill="url(#paint1_linear_633_7832)"/>
<path d="M90.4971 39.3952C90.9404 39.3579 91.3264 39.09 91.698 38.8656C92.0686 38.6249 92.4246 38.3569 92.7671 38.0817C95.1287 36.1179 97.2724 33.8271 98.9801 31.2747C99.2133 30.9171 99.4197 30.5427 99.5977 30.1547C99.7376 29.8332 99.8375 29.5407 99.7876 29.2019C99.535 27.4951 98.1217 25.4323 96.8509 24.2823C96.5176 24.0044 96.1406 23.6865 95.7146 23.6465C95.5193 23.6692 95.3785 23.8136 95.2078 23.9899C95.0749 24.1386 94.9535 24.2971 94.8444 24.464C94.3803 25.158 93.987 25.95 93.5837 26.7348C92.7843 28.3135 91.9605 29.914 90.9667 31.3846C90.2319 32.4982 89.4226 33.5446 88.6732 34.6446C88.3099 35.1896 87.9465 35.7509 87.7712 36.3859C87.367 37.9664 89.022 39.3498 90.4962 39.3979L90.4971 39.3952ZM90.4971 39.3952C89.2255 39.3543 87.8048 38.3542 87.6432 37.0335C87.5787 36.5793 87.7122 36.1315 87.8857 35.721C88.2436 34.9035 88.7332 34.1568 89.2037 33.4038C89.6742 32.6508 90.142 31.906 90.5762 31.1412C91.6834 29.2382 92.4764 27.1681 93.4438 25.1789C93.7553 24.5639 94.0796 23.9354 94.5438 23.3958C95.4675 22.2831 96.5266 22.7836 97.4504 23.6029C98.8747 24.8855 100.462 27.3752 100.492 29.3327C100.48 30.4145 99.2571 31.8188 98.584 32.6317C96.8253 34.633 94.8836 36.4658 92.7843 38.1063C92.4337 38.3788 92.074 38.634 91.7007 38.872C91.3274 39.0954 90.9395 39.3597 90.4953 39.3943L90.4971 39.3952Z" fill="#C2DF38"/>
<path d="M206.813 52.6705C206.37 52.6705 206.193 52.9366 206.193 53.5561C206.012 61.2578 197.518 72.4994 194.154 72.4994C193.269 72.4994 192.649 71.8799 192.649 70.818C192.649 62.4968 201.059 53.3781 206.37 50.723C207.786 50.0154 208.495 49.6612 208.495 48.8646C208.495 47.8018 206.37 45.6772 204.335 45.6772C198.966 45.6772 191.841 51.763 188.198 58.5274C182.894 65.943 175.035 76.1291 172.909 76.1291C172.202 76.1291 171.581 75.5096 171.581 74.3587C171.581 61.0807 190.613 30.2746 190.613 20.1831C190.613 15.6687 188.047 13.0127 187.338 13.0127C186.63 13.0127 186.276 13.7212 186.276 14.9602C186.139 23.4894 173.066 42.0675 167.245 57.2376C162.842 63.3352 155.222 72.057 149.363 72.057C148.213 72.057 147.239 71.1723 147.239 68.5145C147.239 64.7967 148.39 62.406 148.39 62.406C148.39 62.406 150.16 63.3806 151.223 63.3806C155.914 63.3806 162.376 56.9178 162.464 51.1645C162.464 48.5085 159.455 45.4102 157.242 45.4102C152.555 45.4102 145.358 50.1862 142 57.2403C138.861 61.4849 130.904 72.4094 127.676 72.4094C127.234 72.4094 126.791 71.9671 126.791 71.3476C126.791 65.6814 134.315 59.3967 134.315 55.5017C134.315 52.5805 132.102 50.1017 129.446 50.1017C125.551 50.1017 118.028 59.928 118.028 59.928C119.444 55.2365 122.719 52.5806 122.719 49.3914C122.719 46.3812 119.798 43.46 117.23 43.46C112.362 43.46 101.473 59.0397 100.234 60.8091C100.854 59.6583 104.217 53.1964 104.217 50.8066C104.217 48.593 102.359 46.3803 100.766 46.3803C100.057 46.3803 99.7921 46.8226 99.4378 48.4158C98.7112 51.4424 96.9853 54.7496 95.2686 57.9533C91.6607 62.7348 84.2832 71.3458 82.1759 71.3458C81.4674 71.3458 80.6708 70.9025 80.6708 69.3974C80.8524 62.8474 88.5497 54.9686 88.7268 47.2677C88.7268 45.5855 87.3098 43.9923 86.6022 43.9923C85.9827 43.9923 85.7166 44.7889 85.0971 45.8507C79.697 54.7914 73.9437 59.3949 73.8547 65.5915C73.7638 71.522 78.3691 74.7974 82.353 74.7974C84.8219 74.7974 87.9492 72.1288 90.7669 68.9296C90.7669 68.9977 90.7623 69.0659 90.7623 69.1322C90.7623 72.939 94.214 75.5059 95.9853 75.5059C98.1098 75.5059 96.7819 73.2932 102.005 64.6178C107.051 56.2965 113.601 48.0643 115.018 48.0643C115.283 48.0643 115.814 48.246 115.814 48.7719C115.723 51.8702 107.493 60.1915 107.493 65.5915C107.493 69.134 110.68 71.0796 112.096 71.0796C113.601 71.0796 114.221 70.1949 115.548 68.3356C120.151 61.8737 126.175 53.9948 127.675 53.9948C127.746 53.9919 127.816 54.0036 127.882 54.0292C127.948 54.0549 128.008 54.0939 128.057 54.1439C128.107 54.1938 128.146 54.2536 128.172 54.3194C128.198 54.3852 128.209 54.4556 128.207 54.5262C128.207 56.8279 120.328 64.1754 120.328 70.0178C120.328 73.0271 123.603 75.4169 127.231 75.4169C131.082 75.4169 136.371 69.5337 140.163 64.6169C140.157 64.7931 140.155 64.9711 140.155 65.1491C140.155 72.1433 145.377 75.5041 150.866 75.5041C154.97 75.5041 160.735 69.9115 164.937 64.9275C164.658 66.3114 164.511 67.7187 164.497 69.1304C164.497 76.3007 169.366 79.667 172.464 79.667C176.495 79.667 181.677 73.514 185.857 67.4817C186.176 72.7791 189.552 75.5069 193.09 75.5069C200.259 75.5069 209.997 63.3797 209.997 57.3602C210 54.3527 208.053 52.6705 206.813 52.6705ZM158.746 49.6593C159.013 49.6593 159.19 49.9246 159.19 50.2788C159.013 52.6686 151.842 59.5738 149.541 59.5738C153.967 51.7858 157.773 49.6593 158.746 49.6593Z" fill="url(#paint2_linear_633_7832)"/>
<path d="M206.813 52.6706C206.705 52.6607 206.597 52.6841 206.503 52.7378C206.41 52.7914 206.335 52.8726 206.289 52.9703C206.213 53.1735 206.181 53.3899 206.192 53.6062C206.18 54.0359 206.144 54.4646 206.086 54.8905C205.734 57.4502 204.766 59.8864 203.601 62.1772C201.901 65.4672 198.747 70.1542 195.538 72.0653C195.163 72.2733 194.76 72.4522 194.33 72.5013C193.259 72.6148 192.618 71.8082 192.641 70.8027C192.646 70.5502 192.657 70.2468 192.668 69.997C193.148 63.388 198.321 56.6073 203.401 52.6252C204.247 51.9601 205.147 51.3676 206.092 50.8539L206.378 50.7031L206.666 50.5587C207.228 50.2581 207.846 50.0073 208.263 49.5096C209.152 48.3496 206.968 46.572 206.033 46.1488C205.461 45.8654 204.824 45.6791 204.182 45.7146L203.861 45.7264C203.005 45.7935 202.162 45.9721 201.353 46.2578C198.809 47.1434 196.577 48.7275 194.584 50.5069C192.031 52.8176 189.885 55.5405 188.235 58.562C184.803 63.328 181.309 68.0668 177.415 72.4695C176.597 73.3442 173.923 76.4389 172.724 76.1937C172.129 76.1146 171.712 75.576 171.588 75.0246C171.491 74.6613 171.511 74.2816 171.519 73.9101C171.566 72.4359 171.802 70.9762 172.113 69.5374C173.074 65.2283 174.64 61.0826 176.275 56.9933C178.481 51.5433 180.929 46.2033 183.315 40.835C185.66 35.465 188.144 30.1167 189.747 24.4687C190.564 21.5838 190.831 18.778 189.584 15.9576C189.149 14.9902 188.562 14.0319 187.72 13.3834C187.654 13.3356 187.584 13.2928 187.511 13.2553C187.454 13.2252 187.393 13.2073 187.329 13.2026C187.183 13.202 187.041 13.2503 186.926 13.3398C186.416 13.8003 186.484 14.6378 186.449 15.2727C186.407 16.0166 186.303 16.7555 186.137 17.4818C185.48 20.3703 184.299 23.0917 183.073 25.7712C179.48 33.443 174.676 41.6561 171.018 49.297C169.746 51.9503 168.532 54.6344 167.484 57.3812C164.922 60.9237 162.125 64.3136 158.914 67.2866C156.746 69.2431 154.38 71.1279 151.556 72.0271C150.835 72.2567 150.084 72.3764 149.327 72.3823C149.117 72.3815 148.908 72.3509 148.706 72.2915C147.666 71.9872 147.192 70.8963 147.03 69.9298C146.691 67.5145 147.183 64.1828 148.237 61.9801C148.776 62.2798 149.334 62.5414 149.909 62.7631C150.373 62.9329 150.85 63.0801 151.288 63.0701C151.776 63.0596 152.261 62.9872 152.731 62.8548C155.978 61.9374 158.924 59.0589 160.579 56.184C161.352 54.8369 161.921 53.3427 162.07 51.7913L162.081 51.7005V51.6096L162.099 51.2463C162.109 50.5287 161.887 49.8402 161.56 49.1962C160.807 47.7429 159.326 46.2205 157.686 45.859C157.521 45.8256 157.353 45.8106 157.185 45.8145C156.444 45.8326 155.708 45.9418 154.993 46.1397C149.549 47.7202 144.729 52.4608 142.316 57.5056C139.136 61.7875 135.984 66.1348 132.218 69.9371C131.229 70.8926 130.24 71.8264 128.995 72.4804C128.591 72.6848 128.087 72.8773 127.584 72.8501C126.844 72.7874 126.345 72.0499 126.37 71.3504L126.38 71.0852L126.391 70.8209C126.406 70.6873 126.433 70.4294 126.451 70.2968C126.669 68.8434 127.249 67.4755 127.932 66.1911C129.476 63.2472 131.714 60.7039 133.229 57.76C133.573 57.0424 133.847 56.3312 133.874 55.5682C133.923 53.2973 132.309 50.9357 129.989 50.6087C129.804 50.5826 129.618 50.5693 129.432 50.5687C129.03 50.5864 128.635 50.6788 128.266 50.8412C126.5 51.6187 125.032 52.9749 123.628 54.3056C121.181 56.6672 118.967 59.4213 116.9 62.1236C117.374 60.5676 117.921 58.5666 118.671 57.1405C119.094 56.2776 119.579 55.4519 120.064 54.6444C120.777 53.4436 121.544 52.2991 121.992 50.9956C122.608 49.307 122.125 47.5004 121.023 46.1161C120.012 44.8444 118.298 43.6354 116.627 44.0269C114.637 44.6146 112.654 46.5539 111.172 47.9999C107.242 52.0084 103.839 56.5228 100.599 61.1008L99.8348 60.6303C100.989 58.4449 102.089 56.1922 102.975 53.8868C103.31 52.9676 103.65 52.042 103.756 51.071C103.847 49.7385 103.183 48.3778 102.191 47.4994C101.985 47.3188 101.757 47.1661 101.512 47.0453C101.288 46.9318 101.043 46.8671 100.792 46.8554C100.7 46.8486 100.607 46.8616 100.52 46.8936C100.451 46.9274 100.393 46.98 100.353 47.0453C100.286 47.1467 100.231 47.2555 100.189 47.3696C100.043 47.7935 99.9234 48.2261 99.8311 48.6648C99.7739 48.8983 99.6495 49.3643 99.5741 49.5932C98.6385 52.6161 97.127 55.4137 95.6483 58.1887C93.1265 61.5349 90.4137 64.7327 87.5232 67.7662C86.327 68.9642 83.9035 71.5048 82.3766 71.7846C82.057 71.8282 81.7316 71.7852 81.4344 71.6599C81.1371 71.5346 80.8791 71.3317 80.6871 71.0725C80.5033 70.8108 80.3764 70.5134 80.3147 70.1996C80.2689 69.982 80.2443 69.7606 80.2411 69.5383C80.2802 67.3038 81.0859 65.2092 81.986 63.2172C83.7119 59.4531 85.9827 55.9506 87.3579 52.0447C87.8311 50.7341 88.1408 49.3701 88.2799 47.9836L88.2998 47.6103C88.3461 47.1446 88.2839 46.6745 88.1182 46.2369C87.9552 45.7939 87.715 45.3834 87.4088 45.0242C87.2642 44.853 87.0988 44.7004 86.9165 44.5701C86.8417 44.516 86.7597 44.4726 86.673 44.4411C86.6484 44.4323 86.6228 44.4265 86.5967 44.4238C86.4151 44.4293 86.2843 44.6146 86.1735 44.7744C85.9164 45.1886 85.6711 45.6701 85.415 46.1079C83.6674 49.0036 81.6572 51.7495 79.6416 54.4518C77.4162 57.532 74.8747 60.6285 74.3006 64.4753C73.6957 68.9116 76.0782 73.0808 80.5082 74.2489C81.1089 74.4034 81.7264 74.4833 82.3466 74.4869C83.205 74.4769 84.0098 74.1626 84.7664 73.7602C87.2671 72.3614 89.2454 70.185 91.1248 68.0541C91.1048 68.4174 91.0712 69.1377 91.0893 69.4947C91.1659 70.713 91.5993 71.8818 92.3356 72.8555C93.1531 73.9319 94.3039 74.9029 95.6437 75.1927C96.4103 75.3071 96.7637 75.1382 97.0643 74.4551C97.2923 73.9346 97.6239 72.9927 97.8283 72.4323C98.8429 69.6746 100.205 67.0567 101.719 64.5452C104 60.7978 106.486 57.1792 109.167 53.7061C110.529 51.9803 111.901 50.2481 113.52 48.7411C113.892 48.4169 114.296 48.0426 114.791 47.8764C114.954 47.8411 115.123 47.8437 115.285 47.8838C115.446 47.924 115.597 48.0007 115.724 48.108C115.822 48.1892 115.901 48.2903 115.956 48.4044C116.012 48.5186 116.042 48.6433 116.046 48.7702C116.046 48.8757 116.038 48.9811 116.021 49.0854C115.951 49.5632 115.765 50.0219 115.573 50.4479C114.61 52.438 113.286 54.2111 112.087 56.0478C110.509 58.4621 108.852 60.8973 108 63.6777C107.207 66.1975 107.963 68.6854 110.174 70.1859C111.023 70.7609 112.082 71.1697 113.068 70.7309C113.704 70.4584 114.163 69.8807 114.588 69.3348C118.034 64.6397 121.381 59.7974 125.373 55.5391C125.969 54.955 126.553 54.3183 127.321 53.9522C127.775 53.7361 128.32 53.9967 128.342 54.5236C128.333 55.2021 127.945 55.8052 127.624 56.372C125.172 60.3133 120.855 64.884 120.448 69.6446C120.176 73.0962 123.883 75.2917 126.967 75.338C127.593 75.3601 128.217 75.2604 128.805 75.0446C132.964 73.5005 137.331 68.0795 140.075 64.5988L140.237 64.389C140.162 65.9331 140.31 67.5055 140.817 68.9697C142.062 72.7547 145.688 75.0719 149.557 75.4107C149.903 75.4443 150.304 75.4715 150.652 75.4733C151.566 75.5051 152.463 75.2681 153.307 74.9283C157.77 72.95 161.713 68.59 164.882 64.9367L164.993 64.805C164.831 65.6225 164.701 66.45 164.618 67.2802C164.182 71.1188 165.078 75.3135 168.146 77.8895C169.327 78.8778 170.793 79.6226 172.351 79.6735C173.127 79.688 173.896 79.4809 174.601 79.1657C178.904 77.1728 183.097 71.3613 185.825 67.5082L185.849 67.4728V67.5164C185.962 69.3575 186.471 71.2169 187.575 72.7147C188.929 74.6059 191.279 75.7122 193.601 75.507C194.989 75.3907 196.319 74.8884 197.541 74.2353C202.193 71.6802 206.337 66.8424 208.657 62.1127C209.431 60.4486 210.106 58.632 209.94 56.7681C209.82 55.3956 209.204 54.0031 208.068 53.1792C207.694 52.914 207.25 52.7069 206.785 52.6996L206.813 52.6706ZM206.813 52.6706C207.279 52.6778 207.721 52.8849 208.097 53.1493C209.233 53.9722 209.85 55.3647 209.972 56.739C210.141 58.6029 209.464 60.4214 208.693 62.0873C207.073 65.4245 204.755 68.4083 202.057 70.9435C201.041 71.8959 199.944 72.7576 198.778 73.5186C196.85 74.7467 194.577 75.7604 192.238 75.4661C188.198 74.9474 186.026 71.2878 185.842 67.4855C184.123 70.084 182.203 72.544 180.1 74.843C178.77 76.2591 177.343 77.6188 175.679 78.6398C174.68 79.2338 173.556 79.7171 172.371 79.698C170.1 79.6072 168.071 78.1793 166.713 76.428C164.725 73.8383 164.213 70.4248 164.553 67.2448C164.629 66.4681 164.746 65.7006 164.892 64.9294L164.971 64.9676C161.91 68.5373 155.38 75.8975 150.393 75.5696C146.147 75.4525 142.091 73.1553 140.688 68.996C140.199 67.5945 140.029 66.0985 140.077 64.6233L140.23 64.6778C137.532 68.1104 134.727 71.5812 131.102 74.0845C130.069 74.7594 128.922 75.3653 127.678 75.5106C124.267 75.8003 119.928 73.446 120.213 69.6001C120.577 65.1057 124.358 60.7493 126.795 57.1005C127.19 56.5037 127.593 55.8924 127.873 55.2357C127.979 55.0075 128.038 54.7604 128.048 54.509C127.73 52.7142 123.224 58.5057 122.766 59.028C120.495 61.8438 118.308 64.8177 116.197 67.7607C115.545 68.6463 114.962 69.591 114.191 70.3949C112.937 71.6802 111.357 71.4476 109.963 70.4966C108.386 69.4584 107.303 67.6544 107.279 65.7497C107.248 64.2391 107.772 62.8003 108.379 61.4505C109.303 59.4522 110.505 57.5928 111.709 55.7616C112.89 53.935 114.199 52.1719 115.137 50.2154C115.344 49.7421 115.544 49.2698 115.56 48.762C115.56 48.4895 115.264 48.3342 115.015 48.3278C114.901 48.349 114.792 48.3932 114.695 48.4577C114.403 48.6436 114.13 48.8565 113.878 49.0936C113.351 49.575 112.855 50.1036 112.372 50.6377C109.494 53.9077 106.962 57.4884 104.56 61.1226C101.968 65.0557 99.5523 69.1559 98.0517 73.6412C97.6993 74.5777 97.405 75.7786 96.1687 75.8212C95.1696 75.8703 94.2367 75.3725 93.4519 74.8148C92.2074 73.9124 91.2722 72.6476 90.7741 71.1933C90.5325 70.4614 90.4209 69.6928 90.4444 68.9225L91.0185 69.1504C90.3291 69.9352 89.6142 70.6992 88.8594 71.4276C87.1554 73.0363 84.7928 75.0882 82.3603 75.1463C77.4326 75.0846 73.6149 71.047 73.5004 66.1539C73.4703 65.2812 73.545 64.4081 73.7229 63.5533C74.5123 59.92 76.9148 56.8998 79.0358 53.9631C80.8879 51.4652 82.7163 48.9673 84.3468 46.3331C84.5911 45.9271 84.9081 45.4294 85.1198 45.0097C85.3278 44.6464 85.5058 44.2522 85.8237 43.9379C86.5931 43.1921 87.4796 43.8343 88.0283 44.4829C88.7549 45.344 89.2254 46.4812 89.1183 47.6239L89.0974 48.0272L89.0538 48.425C89.0283 48.6494 88.9893 48.9873 88.9439 49.218C87.8539 55.4483 83.5847 60.475 81.6518 66.3909C81.4255 67.1087 81.2641 67.8453 81.1694 68.5918C81.0741 69.2186 81.0432 70.0633 81.3911 70.5484C81.4982 70.6884 81.6422 70.7959 81.807 70.8588C81.9717 70.9217 82.1507 70.9375 82.3239 70.9044C82.7309 70.7945 83.1678 70.5002 83.5302 70.2386C83.9317 69.9462 84.3214 69.6192 84.7029 69.2822C86.9946 67.2157 89.0429 64.8822 91.0476 62.5314C92.2938 61.0427 93.8734 59.0998 94.8889 57.7536C96.4113 54.8869 97.9772 52.0057 98.871 48.8765C98.9918 48.4296 99.0899 47.9681 99.2171 47.5085C99.3497 47.0671 99.5005 46.6002 99.8647 46.2623C100.131 46.0375 100.475 45.9251 100.823 45.9489C102.271 46.0225 103.388 47.2133 104.038 48.4014C104.47 49.2235 104.733 50.1863 104.655 51.1264C104.544 52.1837 104.182 53.1947 103.822 54.1757C102.914 56.5373 101.817 58.7937 100.638 61.03L99.8738 60.5585C103.144 55.9324 106.561 51.3844 110.541 47.3332C111.91 45.9825 113.31 44.6691 115.01 43.7081C115.674 43.3447 116.429 43.0277 117.221 43.0168C119.515 43.0504 121.556 44.8335 122.54 46.8109C122.891 47.4921 123.099 48.2375 123.153 49.0017C123.206 49.766 123.103 50.5331 122.85 51.2563C122.043 53.5135 120.488 55.3756 119.479 57.5102C119.07 58.3307 118.729 59.1834 118.459 60.0599L117.683 59.662C119.931 56.8362 125.76 49.7557 129.437 49.6704C131.14 49.6558 132.739 50.6314 133.676 52.0157C134.391 53.0576 134.768 54.2945 134.756 55.5582C134.734 56.4665 134.392 57.3494 134.02 58.1206C132.797 60.5222 131.091 62.6023 129.685 64.874C128.623 66.5753 127.602 68.4165 127.293 70.3976L127.265 70.6319L127.237 70.8654L127.228 71.0988L127.218 71.3323C127.217 71.3483 127.217 71.3644 127.218 71.3804V71.4222C127.232 71.6756 127.404 71.9672 127.661 71.9972C127.99 72.0017 128.296 71.8764 128.631 71.7156C129.19 71.416 129.716 71.0569 130.198 70.6447C131.712 69.383 133.042 67.9142 134.339 66.4254C136.937 63.4071 139.317 60.2188 141.688 57.0124C143.743 52.646 147.89 48.3197 152.574 46.2033C154.091 45.5302 155.725 45.0224 157.405 45.0551C159.412 45.2041 161.349 47.1316 162.219 48.8483C162.588 49.575 162.846 50.4106 162.828 51.239C162.828 51.3226 162.804 51.6687 162.802 51.745C162.65 53.4309 162.041 55.0613 161.196 56.5201C159.314 59.8164 155.284 63.6051 151.304 63.7204C151.018 63.7226 150.733 63.6863 150.457 63.6124C149.673 63.4089 148.953 63.0801 148.239 62.704L148.693 62.5596C148.416 63.2037 148.196 63.8708 148.035 64.5534C147.704 65.9352 147.547 67.3534 147.57 68.7744C147.577 69.1212 147.607 69.4672 147.661 69.8099C147.796 70.5702 148.107 71.4449 148.897 71.6847C149.043 71.7282 149.193 71.7514 149.345 71.7537C150.038 71.7495 150.727 71.6414 151.388 71.4331C155.259 70.2077 158.836 66.7197 161.58 63.8031C163.525 61.6731 165.347 59.4334 167.037 57.0951C167.923 54.6834 169.349 51.6233 170.573 49.0781C174.262 41.4481 179.089 33.2577 182.713 25.6023C183.936 22.9545 185.122 20.2504 185.779 17.4046C185.965 16.6119 186.073 15.803 186.103 14.9893C186.128 14.3126 186.151 13.536 186.712 13.0609C186.824 12.9714 186.955 12.9085 187.095 12.8771C187.235 12.8456 187.38 12.8463 187.52 12.8793C187.856 12.9901 188.126 13.2426 188.373 13.477C190.061 15.2518 190.775 17.7761 190.785 20.1786C190.772 21.6701 190.439 23.1253 190.054 24.5541C189.669 25.9829 189.188 27.3699 188.682 28.7524C184.027 41.1202 177.518 52.7433 173.429 65.3318C172.569 68.1249 171.794 70.9844 171.672 73.9183C171.664 74.2816 171.642 74.645 171.734 74.9938C171.859 75.5914 172.37 76.1373 173.005 76.0683C174.267 75.8167 176.409 73.3733 177.327 72.3923C181.227 68.0014 184.727 63.2708 188.166 58.5157C190.997 53.1838 197.812 45.9271 204.187 45.6737C204.834 45.6392 205.482 45.829 206.058 46.1161C206.832 46.5043 207.507 47.0634 208.033 47.7511C208.283 48.0962 208.529 48.495 208.516 48.9319C208.502 49.3688 208.176 49.7385 207.815 49.971C207.378 50.2671 206.87 50.5006 206.399 50.7422C203.821 52.0784 201.619 54.0412 199.644 56.1495C196.094 60.0381 192.797 65.2392 192.67 70.6483C192.585 71.7038 193.194 72.6057 194.334 72.4913C195.19 72.3732 195.929 71.8491 196.6 71.3368C200.519 68.115 204.102 62.2535 205.546 57.4139C205.791 56.5899 205.973 55.7485 206.091 54.8969C206.149 54.471 206.185 54.0423 206.198 53.6125C206.186 53.1765 206.273 52.6606 206.819 52.6806L206.813 52.6706Z" fill="#C2DF38"/>
<path d="M158.746 49.6594C158.818 49.661 158.887 49.6815 158.948 49.7187C159.008 49.7558 159.058 49.8084 159.092 49.8711C159.567 50.6649 158.08 52.6315 157.6 53.3146C156.563 54.7106 155.409 56.0149 154.149 57.2131C153.067 58.2123 151.06 59.9754 149.544 60.0289H148.763L149.151 59.3513C150.877 56.3375 153.081 53.5471 155.764 51.328C156.438 50.783 157.141 50.268 157.926 49.9001C158.188 49.7848 158.46 49.6685 158.75 49.6603L158.746 49.6594ZM158.746 49.6594C158.458 49.6703 158.186 49.7893 157.929 49.9065C157.415 50.1655 156.932 50.4824 156.49 50.8512C154.933 52.1228 153.708 53.7442 152.595 55.4037C151.648 56.8307 150.779 58.3104 149.937 59.7973L149.543 59.1215C150.03 59.0879 150.491 58.8372 150.929 58.6065C151.898 58.0615 152.821 57.383 153.702 56.699C155.04 55.6335 156.329 54.4936 157.461 53.2037C158.124 52.4235 159.048 51.3108 159.187 50.2816C159.194 50.0146 159.059 49.6649 158.748 49.6622L158.746 49.6594Z" fill="#C2DF38"/>
</g>
<defs>
<linearGradient id="paint0_linear_633_7832" x1="0.0272217" y1="44.6155" x2="75.0918" y2="44.6155" gradientUnits="userSpaceOnUse">
<stop stop-color="#008080"/>
<stop offset="1" stop-color="#901CD7"/>
</linearGradient>
<linearGradient id="paint1_linear_633_7832" x1="87.6641" y1="31.2956" x2="100.145" y2="31.2956" gradientUnits="userSpaceOnUse">
<stop stop-color="#008080"/>
<stop offset="1" stop-color="#901CD7"/>
</linearGradient>
<linearGradient id="paint2_linear_633_7832" x1="73.8533" y1="46.3398" x2="209.994" y2="46.3398" gradientUnits="userSpaceOnUse">
<stop stop-color="#008080"/>
<stop offset="1" stop-color="#901CD7"/>
</linearGradient>
<clipPath id="clip0_633_7832">
<rect width="210" height="89.4643" fill="white"/>
</clipPath>
</defs>
</svg>
