<svg width="210" height="90" viewBox="0 0 210 90" fill="none" xmlns="http://www.w3.org/2000/svg">
<g clip-path="url(#clip0_629_22)">
<path d="M30.5673 0C17.7316 0 0.0273438 9.26198 0.0273438 29.7432C0.0273438 52.7191 19.4139 64.5634 20.1215 64.5634C20.8291 64.5634 21.4494 64.0288 21.4494 63.4056C21.4494 61.7133 8.87904 53.6986 8.87904 34.2856C8.87904 14.9612 20.6528 4.09644 34.3741 4.09644C47.3869 4.09644 65.9759 15.1393 65.9759 36.6011C65.9759 60.7338 45.8818 77.7427 22.4232 82.9969C39.8632 68.3034 36.5023 48.2663 51.1047 28.5864C52.6098 26.6264 54.203 26.1814 54.203 25.4695C54.203 24.8454 53.5835 24.3118 52.1665 24.3118C26.6724 24.3118 31.8044 67.5925 19.6791 80.5032C15.3418 84.956 11.8893 87.0933 11.8893 87.7165C11.8893 88.3397 12.9511 89.7652 14.1019 89.7652C15.2528 89.7652 19.0596 85.8469 23.3969 85.401C50.9275 82.5519 75.0937 66.2548 75.0937 41.6762C75.0937 15.4957 50.3081 0 30.5673 0Z" fill="white"/>
<path d="M30.567 0C17.972 0.0721879 5.0928 8.0759 1.38771 20.5306C-0.172801 25.5509 -0.256369 30.9476 0.57748 36.1131C2.25971 46.5146 8.42729 55.8707 16.6731 62.2415C17.2654 62.6984 17.8703 63.1324 18.4898 63.5427C19.0112 63.8744 19.5289 64.2363 20.1012 64.4665C20.6988 64.4958 21.381 64.0096 21.3492 63.37C21.3247 63.2 21.2193 63.0538 21.1267 62.9131C20.697 62.3137 20.1648 61.7764 19.6688 61.2263C14.4604 55.8232 10.6218 49.0156 9.35651 41.5491C8.7125 38.0339 8.58897 34.4217 8.83331 30.858C8.86147 30.3792 8.95503 29.6336 8.99136 29.1703C9.05313 28.622 9.1485 28.0418 9.21935 27.4899C9.2902 27.0001 9.4428 26.2901 9.5191 25.8204C9.59631 25.539 9.8134 24.4653 9.89969 24.1674C9.97508 23.9143 10.124 23.335 10.1994 23.0764C10.3284 22.5838 10.5628 21.9195 10.7099 21.4581C14.1734 11.3335 22.5573 4.29107 33.3546 3.84789C35.9888 3.72727 38.6375 4.05897 41.1926 4.70318C51.4041 7.27544 60.4747 14.7547 64.2352 24.7467C67.4616 33.2868 66.8339 42.9856 63.6675 51.4508C56.8232 69.3287 38.7538 80.2263 20.7225 83.8421L22.1304 82.6542C25.1261 80.1188 27.7553 77.1752 29.942 73.9085C30.1718 73.543 30.6751 72.7645 30.8931 72.4182C31.062 72.1203 31.6016 71.2065 31.7832 70.8894C31.9885 70.5157 32.4254 69.6832 32.618 69.3278C32.776 69.007 33.2356 68.0832 33.401 67.7378C36.2758 61.6338 38.1107 55.1278 40.3679 48.7725C42.4888 42.7544 45.0567 36.8451 48.5665 31.5022C48.908 30.9777 49.5348 30.032 49.9163 29.5194C50.2796 29.0104 50.9409 28.0427 51.4023 27.5886C51.6881 27.2892 51.9914 27.0072 52.3106 26.7442C52.7548 26.3614 53.2607 26.0489 53.6631 25.6605C53.7051 25.6191 53.7412 25.5721 53.7703 25.5207C53.7741 25.5139 53.7774 25.5069 53.7803 25.4997C53.7817 25.4949 53.7817 25.4898 53.7803 25.4851C53.7809 25.4836 53.7812 25.4821 53.7812 25.4805C53.7812 25.4789 53.7809 25.4774 53.7803 25.4759C53.7811 25.4659 53.7811 25.4558 53.7803 25.4458C53.7775 25.3938 53.7665 25.3426 53.7476 25.2941C53.6555 25.1234 53.5037 24.9931 53.3216 24.9286C53.0055 24.7833 52.5713 24.7367 52.1807 24.733C51.9464 24.7385 51.4123 24.7504 51.1643 24.7577C51.0916 24.7577 50.9472 24.7659 50.8746 24.7723C47.5001 24.9551 44.1702 26.1128 41.5305 28.2556C31.7206 36.1881 29.9093 55.5774 26.2887 67.3933C25.1324 71.3116 23.7854 75.26 21.4918 78.6729C21.0358 79.3352 20.536 79.966 19.9958 80.5608C18.9676 81.6463 17.8703 82.6624 16.7594 83.6612C15.5786 84.7193 14.3378 85.7217 13.1261 86.7369C12.829 86.9795 12.5471 87.2404 12.2822 87.5182C12.2237 87.5785 12.1752 87.6479 12.1387 87.7238C12.2132 88.2721 12.7264 88.8669 13.196 89.1995C13.4579 89.3909 13.7686 89.5031 14.0916 89.523C14.2301 89.5097 14.3648 89.47 14.4886 89.4061C15.0091 89.1584 15.4878 88.8231 15.9773 88.5033C17.2999 87.6196 18.6469 86.7433 20.1112 86.1C20.8937 85.7496 21.7113 85.4846 22.55 85.3096C23.1541 85.1817 24.1478 85.115 24.7718 85.0355C40.9946 83.048 57.7806 76.4461 67.9085 63.0063C77.7793 50.0308 77.1571 31.4812 67.4453 18.6016C58.9215 7.23798 44.6952 0.148032 30.567 0.000914663V0ZM30.567 0C46.2293 0.156255 62.1624 8.8453 70.093 22.5573C76.4759 33.5601 76.9755 47.9684 70.638 59.1027C61.6219 74.9173 43.2972 82.8479 26.0035 85.2996L24.8227 85.4522C24.2214 85.5207 23.2222 85.6221 22.6345 85.7345C21.0604 86.0589 19.5925 86.7762 18.2191 87.6078C17.5469 88.0135 16.8938 88.453 16.2362 88.8953C15.6367 89.2772 15.0617 89.7323 14.3723 89.9616C13.612 90.1526 12.81 89.6135 12.3222 89.0707C12.1424 88.8726 11.9863 88.6539 11.8571 88.4192C11.7392 88.2135 11.6665 87.9848 11.6437 87.7485C11.6273 87.5657 11.7445 87.3894 11.8526 87.2532C12.1446 86.9286 12.461 86.6271 12.7991 86.3513C14.9264 84.5777 17.0392 82.7968 18.9821 80.8203C19.9519 79.8559 20.802 78.7767 21.5136 77.6065C23.4565 74.3992 24.661 70.8053 25.6983 67.2115C28.3061 58.0354 29.6759 48.4975 33.1257 39.5617C34.2984 36.5773 35.7336 33.6697 37.6819 31.1066C40.7703 26.9663 45.3573 24.278 50.5294 23.9691C50.9745 23.9234 51.3151 23.9243 51.7356 23.9106C52.1371 23.8988 52.5922 23.8878 52.9982 23.9664C53.4669 24.0577 53.9411 24.2158 54.2853 24.606C54.5578 24.9158 54.7014 25.3745 54.5578 25.7811C54.4125 26.1722 54.0537 26.4336 53.7667 26.6638C53.4451 26.9124 53.1363 27.1399 52.8429 27.3866C52.2549 27.8693 51.7326 28.4279 51.2897 29.0479C50.8637 29.6528 50.3268 30.3783 49.9317 30.9787C47.5074 34.5725 45.47 38.4305 43.7696 42.4236C39.4223 52.4431 37.3613 63.4687 31.6679 72.8887C31.4163 73.2935 30.9412 74.0191 30.6987 74.4111C30.3662 74.9036 30.0047 75.4034 29.6677 75.8923C27.649 78.6436 25.3135 81.1447 22.7099 83.3432L22.3239 82.5555C36.6628 79.3308 50.5948 71.5592 58.847 59.0588C66.9438 46.8746 68.5552 29.2397 59.2603 17.262C53.2081 9.34878 42.8385 3.89632 32.8224 4.42357C23.3757 4.94259 15.6049 10.8501 11.9053 19.5117C11.4588 20.5357 11.0676 21.5832 10.7335 22.6496C10.6327 22.9238 10.5065 23.4318 10.4211 23.7233C10.2394 24.3145 10.0314 25.2767 9.88516 25.8954C9.76798 26.5587 9.57905 27.4488 9.50093 28.1012C9.28448 29.5796 9.1444 31.0683 9.08128 32.5613C9.06766 32.9634 9.05676 33.8625 9.04495 34.2436C9.04495 35.1747 9.06584 36.1168 9.12488 37.0443C9.61902 46.2733 13.4749 54.4635 19.8169 61.0865C20.3192 61.6485 20.8433 62.183 21.2847 62.8016C21.3946 62.9679 21.5109 63.1452 21.5372 63.3499C21.5808 64.0974 20.8369 64.6502 20.1493 64.6538C20.0909 64.6536 20.0331 64.6415 19.9795 64.6182C19.4163 64.3697 18.9067 64.0224 18.3935 63.6889C16.5367 62.4223 14.7893 61.0006 13.1697 59.439C6.66785 53.2573 1.9209 45.0635 0.504815 36.125C-0.115576 32.2378 -0.200959 28.2401 0.44214 24.3511C2.76565 9.71521 16.2998 0.180013 30.5652 0H30.567Z" fill="#901CD7"/>
<path d="M90.4972 39.6311C92.1785 39.6311 100.145 31.7946 100.145 29.5687C100.145 27.3428 97.2243 23.335 95.7201 23.335C94.4802 23.335 93.3293 26.8073 91.648 29.9242C89.7886 33.3965 87.6641 35.5347 87.6641 37.0516C87.6641 38.5684 89.3463 39.6311 90.4972 39.6311Z" fill="white"/>
<path d="M90.4971 39.6311C90.9404 39.5936 91.3264 39.324 91.698 39.0983C92.0686 38.8562 92.4246 38.5866 92.7671 38.3097C95.1287 36.3342 97.2724 34.0296 98.9801 31.4619C99.2133 31.1022 99.4197 30.7256 99.5977 30.3353C99.7376 30.0118 99.8375 29.7176 99.7876 29.3767C99.535 27.6597 98.1217 25.5846 96.8509 24.4277C96.5176 24.1481 96.1406 23.8283 95.7146 23.7881C95.5193 23.8109 95.3785 23.9562 95.2078 24.1335C95.0749 24.2831 94.9535 24.4426 94.8444 24.6105C94.3803 25.3086 93.987 26.1054 93.5837 26.8949C92.7843 28.483 91.9605 30.0931 90.9667 31.5725C90.2319 32.6928 89.4226 33.7454 88.6732 34.852C88.3099 35.4003 87.9465 35.965 87.7712 36.6037C87.367 38.1937 89.022 39.5854 90.4962 39.6338L90.4971 39.6311ZM90.4971 39.6311C89.2255 39.5899 87.8048 38.5839 87.6432 37.2552C87.5787 36.7984 87.7122 36.3479 87.8857 35.9349C88.2436 35.1125 88.7332 34.3613 89.2037 33.6038C89.6742 32.8463 90.142 32.097 90.5762 31.3276C91.6834 29.4133 92.4764 27.3308 93.4438 25.3296C93.7553 24.711 94.0796 24.0787 94.5438 23.5359C95.4675 22.4165 96.5266 22.92 97.4504 23.7442C98.8747 25.0345 100.462 27.5391 100.492 29.5083C100.48 30.5966 99.2571 32.0093 98.584 32.8271C96.8253 34.8403 94.8836 36.6841 92.7843 38.3344C92.4337 38.6085 92.074 38.8653 91.7007 39.1047C91.3274 39.3295 90.9395 39.5954 90.4953 39.6301L90.4971 39.6311Z" fill="#901CD7"/>
<path d="M206.813 52.9858C206.37 52.9858 206.193 53.2535 206.193 53.8767C206.012 61.6246 197.518 72.9334 194.154 72.9334C193.269 72.9334 192.649 72.3102 192.649 71.242C192.649 62.871 201.059 53.6976 206.37 51.0267C207.786 50.3148 208.495 49.9585 208.495 49.1571C208.495 48.088 206.37 45.9507 204.335 45.9507C198.966 45.9507 191.841 52.0729 188.198 58.8778C182.894 66.3378 175.035 76.5848 172.909 76.5848C172.202 76.5848 171.581 75.9616 171.581 74.8039C171.581 61.4464 190.613 30.4559 190.613 20.3039C190.613 15.7624 188.047 13.0906 187.338 13.0906C186.63 13.0906 186.276 13.8033 186.276 15.0497C186.139 23.63 173.066 42.3194 167.245 57.5802C162.842 63.7144 155.222 72.4884 149.363 72.4884C148.213 72.4884 147.239 71.5984 147.239 68.9247C147.239 65.1846 148.39 62.7796 148.39 62.7796C148.39 62.7796 150.16 63.7601 151.223 63.7601C155.914 63.7601 162.376 57.2586 162.464 51.4708C162.464 48.7989 159.455 45.682 157.242 45.682C152.555 45.682 145.358 50.4866 142 57.583C138.861 61.853 130.904 72.8429 127.676 72.8429C127.234 72.8429 126.791 72.3979 126.791 71.7747C126.791 66.0746 134.315 59.7523 134.315 55.834C134.315 52.8953 132.102 50.4016 129.446 50.4016C125.551 50.4016 118.028 60.2868 118.028 60.2868C119.444 55.5672 122.719 52.8953 122.719 49.6871C122.719 46.6589 119.798 43.7202 117.23 43.7202C112.362 43.7202 101.473 59.3932 100.234 61.1732C100.854 60.0154 104.217 53.5149 104.217 51.1107C104.217 48.8839 102.359 46.6579 100.766 46.6579C100.057 46.6579 99.7921 47.1029 99.4378 48.7057C98.7112 51.7504 96.9853 55.0774 95.2686 58.3003C91.6607 63.1104 84.2832 71.7729 82.1759 71.7729C81.4674 71.7729 80.6708 71.327 80.6708 69.8129C80.8524 63.2237 88.5497 55.2976 88.7268 47.5507C88.7268 45.8584 87.3098 44.2556 86.6022 44.2556C85.9827 44.2556 85.7166 45.057 85.0971 46.1252C79.697 55.1194 73.9437 59.7504 73.8547 65.9842C73.7638 71.9502 78.3691 75.2452 82.353 75.2452C84.8219 75.2452 87.9492 72.5606 90.7669 69.3423C90.7669 69.4108 90.7623 69.4794 90.7623 69.5461C90.7623 73.3757 94.214 75.958 95.9853 75.958C98.1098 75.958 96.7819 73.732 102.005 65.0046C107.051 56.6336 113.601 48.3521 115.018 48.3521C115.283 48.3521 115.814 48.5348 115.814 49.0639C115.723 52.1808 107.493 60.5518 107.493 65.9842C107.493 69.5479 110.68 71.5052 112.096 71.5052C113.601 71.5052 114.221 70.6152 115.548 68.7447C120.151 62.2441 126.175 54.3181 127.675 54.3181C127.746 54.3151 127.816 54.3269 127.882 54.3527C127.948 54.3785 128.008 54.4178 128.057 54.468C128.107 54.5183 128.146 54.5784 128.172 54.6446C128.198 54.7108 128.209 54.7816 128.207 54.8526C128.207 57.1681 120.328 64.5596 120.328 70.437C120.328 73.4643 123.603 75.8684 127.231 75.8684C131.082 75.8684 136.371 69.95 140.163 65.0037C140.157 65.181 140.155 65.3601 140.155 65.5392C140.155 72.5752 145.377 75.9562 150.866 75.9562C154.97 75.9562 160.735 70.3301 164.937 65.3162C164.658 66.7084 164.511 68.1241 164.497 69.5442C164.497 76.7575 169.366 80.144 172.464 80.144C176.495 80.144 181.677 73.9541 185.857 67.8857C186.176 73.2148 189.552 75.9589 193.09 75.9589C200.259 75.9589 209.997 63.7592 209.997 57.7036C210 54.6781 208.053 52.9858 206.813 52.9858ZM158.746 49.9566C159.013 49.9566 159.19 50.2235 159.19 50.5798C159.013 52.984 151.842 59.9305 149.541 59.9305C153.967 52.0958 157.773 49.9566 158.746 49.9566Z" fill="white"/>
<path d="M206.813 52.9859C206.705 52.9759 206.597 52.9995 206.503 53.0535C206.41 53.1074 206.335 53.1891 206.289 53.2874C206.213 53.4918 206.181 53.7095 206.192 53.9271C206.18 54.3593 206.144 54.7906 206.086 55.2191C205.734 57.7941 204.766 60.2449 203.601 62.5494C201.901 65.8591 198.747 70.5741 195.538 72.4967C195.163 72.706 194.76 72.886 194.33 72.9353C193.259 73.0495 192.618 72.2381 192.641 71.2266C192.646 70.9725 192.657 70.6673 192.668 70.416C193.148 63.7675 198.321 56.9462 203.401 52.9402C204.247 52.2712 205.147 51.6751 206.092 51.1583L206.378 51.0066L206.666 50.8614C207.228 50.5589 207.846 50.3067 208.263 49.806C209.152 48.6391 206.968 46.8508 206.033 46.425C205.461 46.1399 204.824 45.9526 204.182 45.9882L203.861 46.0001C203.005 46.0676 202.162 46.2473 201.353 46.5347C198.809 47.4256 196.577 49.0192 194.584 50.8093C192.031 53.1338 189.885 55.873 188.235 58.9126C184.803 63.7071 181.309 68.4743 177.415 72.9033C176.597 73.7833 173.923 76.8965 172.724 76.6498C172.129 76.5703 171.712 76.0284 171.588 75.4738C171.491 75.1083 171.511 74.7263 171.519 74.3526C171.566 72.8695 171.802 71.4011 172.113 69.9537C173.074 65.6188 174.64 61.4483 176.275 57.3345C178.481 51.8519 180.929 46.4798 183.315 41.0794C185.66 35.6772 188.144 30.297 189.747 24.6151C190.564 21.713 190.831 18.8904 189.584 16.0531C189.149 15.0799 188.562 14.1159 187.72 13.4635C187.654 13.4154 187.584 13.3723 187.511 13.3346C187.454 13.3043 187.393 13.2863 187.329 13.2816C187.183 13.281 187.041 13.3296 186.926 13.4196C186.416 13.8829 186.484 14.7254 186.449 15.3641C186.407 16.1124 186.303 16.8558 186.137 17.5864C185.48 20.4922 184.299 23.2299 183.073 25.9255C179.48 33.6432 174.676 41.9055 171.018 49.5921C169.746 52.2613 168.532 54.9614 167.484 57.7247C164.922 61.2884 162.125 64.6986 158.914 67.6894C156.746 69.6576 154.38 71.5537 151.556 72.4583C150.835 72.6893 150.084 72.8097 149.327 72.8156C149.117 72.8148 148.908 72.7841 148.706 72.7242C147.666 72.4181 147.192 71.3207 147.03 70.3484C146.691 67.9187 147.183 64.567 148.237 62.3511C148.776 62.6526 149.334 62.9158 149.909 63.1388C150.373 63.3097 150.85 63.4577 151.288 63.4476C151.776 63.4371 152.261 63.3643 152.731 63.2311C155.978 62.3082 158.924 59.4124 160.579 56.5203C161.352 55.1652 161.921 53.6621 162.07 52.1013L162.081 52.01V51.9186L162.099 51.5531C162.109 50.8312 161.887 50.1386 161.56 49.4907C160.807 48.0287 159.326 46.4972 157.686 46.1335C157.521 46.0999 157.353 46.0849 157.185 46.0887C156.444 46.107 155.708 46.2168 154.993 46.4159C149.549 48.0058 144.729 52.7748 142.316 57.8499C139.136 62.1574 135.984 66.5307 132.218 70.3557C131.229 71.317 130.24 72.2564 128.995 72.9143C128.591 73.1199 128.087 73.3136 127.584 73.2862C126.844 73.2232 126.345 72.4812 126.37 71.7776L126.38 71.5107L126.391 71.2448C126.406 71.1105 126.433 70.851 126.451 70.7176C126.669 69.2556 127.249 67.8794 127.932 66.5874C129.476 63.6258 131.714 61.0673 133.229 58.1057C133.573 57.3839 133.847 56.6684 133.874 55.9008C133.923 53.6164 132.309 51.2406 129.989 50.9116C129.804 50.8854 129.618 50.872 129.432 50.8714C129.03 50.8892 128.635 50.9821 128.266 51.1455C126.5 51.9277 125.032 53.292 123.628 54.6307C121.181 57.0065 118.967 59.777 116.9 62.4955C117.374 60.9302 117.921 58.9172 118.671 57.4825C119.094 56.6145 119.579 55.7838 120.064 54.9715C120.777 53.7635 121.544 52.6121 121.992 51.3009C122.608 49.6022 122.125 47.7847 121.023 46.3921C120.012 45.1128 118.298 43.8966 116.627 44.2904C114.637 44.8816 112.654 46.8325 111.172 48.2873C107.242 52.3197 103.839 56.8612 100.599 61.4666L99.8348 60.9933C100.989 58.7947 102.089 56.5286 102.975 54.2094C103.31 53.2847 103.65 52.3535 103.756 51.3767C103.847 50.0362 103.183 48.6674 102.191 47.7838C101.985 47.6021 101.757 47.4484 101.512 47.3269C101.288 47.2128 101.043 47.1477 100.792 47.1359C100.7 47.129 100.607 47.1421 100.52 47.1743C100.451 47.2083 100.393 47.2612 100.353 47.3269C100.286 47.4289 100.231 47.5384 100.189 47.6531C100.043 48.0796 99.9234 48.5147 99.8311 48.9562C99.7739 49.191 99.6495 49.6598 99.5741 49.89C98.6385 52.931 97.127 55.7455 95.6483 58.537C93.1265 61.9033 90.4137 65.1202 87.5232 68.1718C86.327 69.3771 83.9035 71.9329 82.3766 72.2143C82.057 72.2582 81.7316 72.2149 81.4344 72.0889C81.1371 71.9628 80.8791 71.7587 80.6871 71.498C80.5033 71.2347 80.3764 70.9355 80.3147 70.6198C80.2689 70.401 80.2443 70.1782 80.2411 69.9546C80.2802 67.7067 81.0859 65.5996 81.986 63.5957C83.7119 59.809 85.9827 56.2855 87.3579 52.3563C87.8311 51.0378 88.1408 49.6656 88.2799 48.2708L88.2998 47.8953C88.3461 47.4268 88.2839 46.9539 88.1182 46.5136C87.9552 46.0681 87.715 45.6551 87.4088 45.2938C87.2642 45.1215 87.0988 44.968 86.9165 44.8369C86.8417 44.7825 86.7597 44.7389 86.673 44.7071C86.6484 44.6982 86.6228 44.6924 86.5967 44.6898C86.4151 44.6952 86.2843 44.8816 86.1735 45.0425C85.9164 45.4591 85.6711 45.9434 85.415 46.3839C83.6674 49.297 81.6572 52.0593 79.6416 54.7778C77.4162 57.8764 74.8747 60.9914 74.3006 64.8612C73.6957 69.3241 76.0782 73.5183 80.5082 74.6934C81.1089 74.8488 81.7264 74.9292 82.3466 74.9328C83.205 74.9228 84.0098 74.6066 84.7664 74.2018C87.2671 72.7946 89.2454 70.6052 91.1248 68.4615C91.1048 68.827 91.0712 69.5516 91.0893 69.9107C91.1659 71.1363 91.5993 72.3122 92.3356 73.2917C93.1531 74.3745 94.3039 75.3513 95.6437 75.6428C96.4103 75.7579 96.7637 75.588 97.0643 74.9008C97.2923 74.3772 97.6239 73.4297 97.8283 72.8659C98.8429 70.0917 100.205 67.4582 101.719 64.9316C104 61.1617 106.486 57.5215 109.167 54.0276C110.529 52.2914 111.901 50.5489 113.52 49.0329C113.892 48.7067 114.296 48.3302 114.791 48.163C114.954 48.1275 115.123 48.1301 115.285 48.1705C115.446 48.2109 115.597 48.288 115.724 48.396C115.822 48.4777 115.901 48.5793 115.956 48.6942C116.012 48.8091 116.042 48.9345 116.046 49.0621C116.046 49.1683 116.038 49.2743 116.021 49.3792C115.951 49.8599 115.765 50.3213 115.573 50.7499C114.61 52.752 113.286 54.5356 112.087 56.3833C110.509 58.8121 108.852 61.2619 108 64.0589C107.207 66.5937 107.963 69.0966 110.174 70.6061C111.023 71.1845 112.082 71.5957 113.068 71.1544C113.704 70.8802 114.163 70.2991 114.588 69.7499C118.034 65.0266 121.381 60.1553 125.373 55.8716C125.969 55.284 126.553 54.6435 127.321 54.2752C127.775 54.0577 128.32 54.32 128.342 54.85C128.333 55.5326 127.945 56.1393 127.624 56.7095C125.172 60.6743 120.855 65.2724 120.448 70.0615C120.176 73.5338 123.883 75.7424 126.967 75.789C127.593 75.8112 128.217 75.711 128.805 75.4939C132.964 73.9405 137.331 68.4871 140.075 64.9855L140.237 64.7744C140.162 66.3278 140.31 67.9096 140.817 69.3826C142.062 73.1903 145.688 75.5213 149.557 75.8621C149.903 75.8959 150.304 75.9233 150.652 75.9252C151.566 75.9571 152.463 75.7187 153.307 75.3769C157.77 73.3867 161.713 69.0006 164.882 65.3254L164.993 65.1929C164.831 66.0153 164.701 66.8478 164.618 67.683C164.182 71.5446 165.078 75.7644 168.146 78.3558C169.327 79.35 170.793 80.0993 172.351 80.1505C173.127 80.1651 173.896 79.9567 174.601 79.6396C178.904 77.6348 183.097 71.7885 185.825 67.9123L185.849 67.8767V67.9205C185.962 69.7728 186.471 71.6432 187.575 73.15C188.929 75.0525 191.279 76.1655 193.601 75.959C194.989 75.842 196.319 75.3367 197.541 74.6797C202.193 72.1093 206.337 67.2425 208.657 62.4845C209.431 60.8105 210.106 58.983 209.94 57.1079C209.82 55.7272 209.204 54.3264 208.068 53.4976C207.694 53.2308 207.25 53.0224 206.785 53.0151L206.813 52.9859ZM206.813 52.9859C207.279 52.9932 207.721 53.2015 208.097 53.4674C209.233 54.2953 209.85 55.6961 209.972 57.0786C210.141 58.9537 209.464 60.7831 208.693 62.4589C207.073 65.8161 204.755 68.8179 202.057 71.3682C201.041 72.3263 199.944 73.1931 198.778 73.9587C196.85 75.1942 194.577 76.2139 192.238 75.9179C188.198 75.3961 186.026 71.7145 185.842 67.8895C184.123 70.5036 182.203 72.9783 180.1 75.291C178.77 76.7156 177.343 78.0835 175.679 79.1106C174.68 79.7082 173.556 80.1943 172.371 80.1751C170.1 80.0837 168.071 78.6473 166.713 76.8855C164.725 74.2804 164.213 70.8464 164.553 67.6473C164.629 66.8661 164.746 66.0939 164.892 65.3181L164.971 65.3565C161.91 68.9476 155.38 76.3519 150.393 76.022C146.147 75.9042 142.091 73.5932 140.688 69.4091C140.199 67.9991 140.029 66.4941 140.077 65.0102L140.23 65.065C137.532 68.5181 134.727 72.0097 131.102 74.528C130.069 75.207 128.922 75.8164 127.678 75.9626C124.267 76.2541 119.928 73.8856 120.213 70.0167C120.577 65.4954 124.358 61.113 126.795 57.4423C127.19 56.842 127.593 56.227 127.873 55.5664C127.979 55.3368 128.038 55.0883 128.048 54.8353C127.73 53.0297 123.224 58.8559 122.766 59.3814C120.495 62.214 118.308 65.2057 116.197 68.1663C115.545 69.0573 114.962 70.0076 114.191 70.8163C112.937 72.1093 111.357 71.8753 109.963 70.9186C108.386 69.8742 107.303 68.0594 107.279 66.1433C107.248 64.6237 107.772 63.1763 108.379 61.8184C109.303 59.8081 110.505 57.9376 111.709 56.0954C112.89 54.2578 114.199 52.4842 115.137 50.516C115.344 50.0399 115.544 49.5647 115.56 49.0539C115.56 48.7798 115.264 48.6235 115.015 48.6171C114.901 48.6384 114.792 48.6829 114.695 48.7478C114.403 48.9348 114.13 49.1489 113.878 49.3874C113.351 49.8717 112.855 50.4036 112.372 50.9409C109.494 54.2304 106.962 57.8325 104.56 61.4885C101.968 65.4451 99.5523 69.5699 98.0517 74.0821C97.6993 75.0242 97.405 76.2322 96.1687 76.2751C95.1696 76.3245 94.2367 75.8237 93.4519 75.2627C92.2074 74.3549 91.2722 73.0825 90.7741 71.6195C90.5325 70.8832 90.4209 70.1101 90.4444 69.3351L91.0185 69.5644C90.3291 70.3539 89.6142 71.1224 88.8594 71.8552C87.1554 73.4735 84.7928 75.5377 82.3603 75.5962C77.4326 75.5341 73.6149 71.4724 73.5004 66.5499C73.4703 65.672 73.545 64.7937 73.7229 63.9338C74.5123 60.2787 76.9148 57.2404 79.0358 54.2862C80.8879 51.7733 82.7163 49.2604 84.3468 46.6105C84.5911 46.202 84.9081 45.7013 85.1198 45.2791C85.3278 44.9136 85.5058 44.517 85.8237 44.2009C86.5931 43.4507 87.4796 44.0967 88.0283 44.7491C88.7549 45.6154 89.2254 46.7594 89.1183 47.909L89.0974 48.3147L89.0538 48.7149C89.0283 48.9406 88.9893 49.2805 88.9439 49.5126C87.8539 55.7802 83.5847 60.837 81.6518 66.7884C81.4255 67.5104 81.2641 68.2514 81.1694 69.0025C81.0741 69.633 81.0432 70.4828 81.3911 70.9707C81.4982 71.1116 81.6422 71.2198 81.807 71.283C81.9717 71.3463 82.1507 71.3622 82.3239 71.3289C82.7309 71.2183 83.1678 70.9223 83.5302 70.6591C83.9317 70.3649 84.3214 70.0359 84.7029 69.6969C86.9946 67.6181 89.0429 65.2706 91.0476 62.9058C92.2938 61.4081 93.8734 59.4535 94.8889 58.0993C96.4113 55.2155 97.9772 52.317 98.871 49.1691C98.9918 48.7195 99.0899 48.2553 99.2171 47.7929C99.3497 47.3488 99.5005 46.8791 99.8647 46.5392C100.131 46.3131 100.475 46.2 100.823 46.224C102.271 46.298 103.388 47.4959 104.038 48.6912C104.47 49.5181 104.733 50.4867 104.655 51.4325C104.544 52.4961 104.182 53.5131 103.822 54.5C102.914 56.8758 101.817 59.1456 100.638 61.3953L99.8738 60.9211C103.144 56.2672 106.561 51.692 110.541 47.6166C111.91 46.2578 113.31 44.9365 115.01 43.9697C115.674 43.6042 116.429 43.2853 117.221 43.2743C119.515 43.3081 121.556 45.1019 122.54 47.0911C122.891 47.7764 123.099 48.5262 123.153 49.2951C123.206 50.0639 123.103 50.8356 122.85 51.5631C122.043 53.8339 120.488 55.7071 119.479 57.8545C119.07 58.6798 118.729 59.5377 118.459 60.4194L117.683 60.0192C119.931 57.1764 125.76 50.0536 129.437 49.9677C131.14 49.9531 132.739 50.9345 133.676 52.327C134.391 53.3753 134.768 54.6195 134.756 55.8907C134.734 56.8045 134.392 57.6927 134.02 58.4685C132.797 60.8845 131.091 62.977 129.685 65.2624C128.623 66.9739 127.602 68.8261 127.293 70.819L127.265 71.0548L127.237 71.2896L127.228 71.5245L127.218 71.7593C127.217 71.7754 127.217 71.7916 127.218 71.8077V71.8498C127.232 72.1047 127.404 72.398 127.661 72.4282C127.99 72.4327 128.296 72.3066 128.631 72.1449C129.19 71.8435 129.716 71.4823 130.198 71.0676C131.712 69.7983 133.042 68.3208 134.339 66.8231C136.937 63.7866 139.317 60.5793 141.688 57.3537C143.743 52.9612 147.89 48.6089 152.574 46.4798C154.091 45.8027 155.725 45.2919 157.405 45.3248C159.412 45.4747 161.349 47.4137 162.219 49.1407C162.588 49.8717 162.846 50.7124 162.828 51.5458C162.828 51.6298 162.804 51.978 162.802 52.0547C162.65 53.7507 162.041 55.3909 161.196 56.8584C159.314 60.1745 155.284 63.9859 151.304 64.1019C151.018 64.1041 150.733 64.0675 150.457 63.9932C149.673 63.7885 148.953 63.4577 148.239 63.0794L148.693 62.9341C148.416 63.582 148.196 64.2532 148.035 64.9398C147.704 66.3299 147.547 67.7566 147.57 69.1861C147.577 69.535 147.607 69.8831 147.661 70.2278C147.796 70.9926 148.107 71.8726 148.897 72.1138C149.043 72.1576 149.193 72.1809 149.345 72.1833C150.038 72.179 150.727 72.0703 151.388 71.8607C155.259 70.628 158.836 67.1192 161.58 64.185C163.525 62.0423 165.347 59.7892 167.037 57.4368C167.923 55.0108 169.349 51.9323 170.573 49.3719C174.262 41.6962 179.089 33.4568 182.713 25.7555C183.936 23.0919 185.122 20.3716 185.779 17.5087C185.965 16.7113 186.073 15.8975 186.103 15.079C186.128 14.3983 186.151 13.617 186.712 13.1391C186.824 13.049 186.955 12.9858 187.095 12.9541C187.235 12.9224 187.38 12.9232 187.52 12.9563C187.856 13.0678 188.126 13.3218 188.373 13.5576C190.061 15.3431 190.775 17.8825 190.785 20.2994C190.772 21.7998 190.439 23.2637 190.054 24.701C189.669 26.1384 189.188 27.5337 188.682 28.9245C184.027 41.3664 177.518 53.059 173.429 65.7229C172.569 68.5328 171.794 71.4093 171.672 74.3608C171.664 74.7263 171.642 75.0918 171.734 75.4427C171.859 76.044 172.37 76.5931 173.005 76.5237C174.267 76.2706 176.409 73.8125 177.327 72.8257C181.227 68.4085 184.727 63.6496 188.166 58.866C190.997 53.5022 197.812 46.202 204.187 45.9471C204.834 45.9124 205.482 46.1034 206.058 46.3921C206.832 46.7827 207.507 47.3451 208.033 48.0369C208.283 48.3841 208.529 48.7853 208.516 49.2248C208.502 49.6643 208.176 50.0362 207.815 50.2702C207.378 50.568 206.87 50.8029 206.399 51.0459C203.821 52.3901 201.619 54.3647 199.644 56.4856C196.094 60.3975 192.797 65.6297 192.67 71.0712C192.585 72.133 193.194 73.0404 194.334 72.9253C195.19 72.8065 195.929 72.2792 196.6 71.7639C200.519 68.5227 204.102 62.6262 205.546 57.7576C205.791 56.9286 205.973 56.0822 206.091 55.2255C206.149 54.7971 206.185 54.3658 206.198 53.9335C206.186 53.4948 206.273 52.9758 206.819 52.9959L206.813 52.9859Z" fill="#901CD7"/>
<path d="M158.746 49.9568C158.818 49.9584 158.887 49.979 158.948 50.0164C159.008 50.0538 159.058 50.1067 159.092 50.1697C159.567 50.9683 158.08 52.9466 157.6 53.6338C156.563 55.0382 155.409 56.3503 154.149 57.5557C153.067 58.5609 151.06 60.3345 149.544 60.3884H148.763L149.151 59.7067C150.877 56.6748 153.081 53.8677 155.764 51.6354C156.438 51.0871 157.141 50.569 157.926 50.1989C158.188 50.0829 158.46 49.9659 158.75 49.9577L158.746 49.9568ZM158.746 49.9568C158.458 49.9678 158.186 50.0875 157.929 50.2053C157.415 50.4659 156.932 50.7847 156.49 51.1557C154.933 52.4349 153.708 54.066 152.595 55.7355C151.648 57.171 150.779 58.6595 149.937 60.1554L149.543 59.4755C150.03 59.4417 150.491 59.1895 150.929 58.9574C151.898 58.4092 152.821 57.7266 153.702 57.0385C155.04 55.9667 156.329 54.8199 157.461 53.5223C158.124 52.7374 159.048 51.618 159.187 50.5827C159.194 50.3141 159.059 49.9623 158.748 49.9595L158.746 49.9568Z" fill="#901CD7"/>
</g>
<defs>
<clipPath id="clip0_629_22">
<rect width="210" height="90" fill="white"/>
</clipPath>
</defs>
</svg>
